<svg aria-hidden="true" style="position: absolute; width: 0; height: 0; overflow: hidden;" version="1.1" xmlns="http://www.w3.org/2000/svg" xmlns:xlink="http://www.w3.org/1999/xlink">
<defs>

<symbol id="next" viewBox="0 0 32 32">
<path d="M19.414 27.414l10-10c0.362-0.362 0.586-0.862 0.586-1.414s-0.224-1.052-0.586-1.414l-10-10c-0.364-0.377-0.874-0.611-1.439-0.611-1.105 0-2 0.895-2 2 0 0.564 0.234 1.074 0.61 1.438l0.001 0.001 6.586 6.586h-19.172c-1.105 0-2 0.895-2 2s0.895 2 2 2v0h19.172l-6.586 6.586c-0.39 0.39-0.586 0.902-0.586 1.414s0.195 1.024 0.586 1.414c0.362 0.362 0.862 0.586 1.414 0.586s1.052-0.224 1.414-0.586v0z"></path>
</symbol>

<symbol id="prev" viewBox="0 0 32 32">
<path d="M12.586 27.414l-10-10c-0.362-0.362-0.586-0.862-0.586-1.414s0.224-1.052 0.586-1.414l10-10c0.364-0.377 0.874-0.611 1.439-0.611 1.105 0 2 0.895 2 2 0 0.564-0.234 1.074-0.61 1.438l-0.001 0.001-6.586 6.586h19.172c1.105 0 2 0.895 2 2s-0.895 2-2 2v0h-19.172l6.586 6.586c0.39 0.39 0.586 0.902 0.586 1.414s-0.195 1.024-0.586 1.414c-0.362 0.362-0.862 0.586-1.414 0.586s-1.052-0.224-1.414-0.586v0z"></path>
</symbol>

</defs>
</svg>
