<svg aria-hidden="true" style="position:absolute;width:0;height:0" xmlns="http://www.w3.org/2000/svg" overflow="hidden"><defs><symbol id="next" viewBox="0 0 32 32"><path d="M19.414 27.414l10-10c.362-.362.586-.862.586-1.414s-.224-1.052-.586-1.414l-10-10a2 2 0 10-2.829 2.827l.001.001L23.172 14H4a2 2 0 100 4h19.172l-6.586 6.586c-.39.39-.586.902-.586 1.414s.195 1.024.586 1.414c.362.362.862.586 1.414.586s1.052-.224 1.414-.586z"/></symbol><symbol id="prev" viewBox="0 0 32 32"><path d="M12.586 27.414l-10-10C2.224 17.052 2 16.552 2 16s.224-1.052.586-1.414l10-10a2 2 0 112.829 2.827l-.001.001L8.828 14H28a2 2 0 110 4H8.828l6.586 6.586c.39.39.586.902.586 1.414s-.195 1.024-.586 1.414c-.362.362-.862.586-1.414.586s-1.052-.224-1.414-.586z"/></symbol></defs></svg>